<svg width="1200" height="675" viewBox="0 0 1200 675" fill="none" xmlns="http://www.w3.org/2000/svg">
  <defs>
    <linearGradient id="bg" x1="0" y1="0" x2="1200" y2="675" gradientUnits="userSpaceOnUse">
      <stop stop-color="#020617"/>
      <stop offset="1" stop-color="#0B1327"/>
    </linearGradient>
    <linearGradient id="card" x1="220" y1="110" x2="980" y2="560" gradientUnits="userSpaceOnUse">
      <stop stop-color="#111C34"/>
      <stop offset="1" stop-color="#0B162E"/>
    </linearGradient>
    <linearGradient id="accent" x1="300" y1="190" x2="900" y2="500" gradientUnits="userSpaceOnUse">
      <stop stop-color="#22C55E"/>
      <stop offset="1" stop-color="#3B82F6"/>
    </linearGradient>
    <filter id="glow" x="0" y="0" width="1200" height="675" filterUnits="userSpaceOnUse" color-interpolation-filters="sRGB">
      <feGaussianBlur stdDeviation="28" result="blur"/>
      <feBlend in="SourceGraphic" in2="blur" mode="screen"/>
    </filter>
  </defs>

  <rect width="1200" height="675" fill="url(#bg)"/>

  <circle cx="150" cy="100" r="180" fill="#22C55E" opacity="0.08"/>
  <circle cx="1080" cy="580" r="220" fill="#3B82F6" opacity="0.08"/>

  <rect x="220" y="110" width="760" height="450" rx="26" fill="url(#card)" stroke="#334155"/>

  <g filter="url(#glow)">
    <circle cx="360" cy="228" r="16" fill="#22C55E"/>
    <circle cx="505" cy="200" r="13" fill="#38BDF8"/>
    <circle cx="655" cy="238" r="15" fill="#22C55E"/>
    <circle cx="800" cy="205" r="14" fill="#38BDF8"/>
    <circle cx="425" cy="350" r="15" fill="#38BDF8"/>
    <circle cx="580" cy="332" r="17" fill="#22C55E"/>
    <circle cx="742" cy="355" r="15" fill="#38BDF8"/>
    <circle cx="505" cy="460" r="14" fill="#22C55E"/>
    <circle cx="670" cy="450" r="15" fill="#38BDF8"/>
  </g>

  <path d="M360 228L505 200L655 238L800 205" stroke="url(#accent)" stroke-width="4" stroke-linecap="round"/>
  <path d="M425 350L580 332L742 355" stroke="url(#accent)" stroke-width="4" stroke-linecap="round"/>
  <path d="M505 460L580 332L670 450" stroke="url(#accent)" stroke-width="4" stroke-linecap="round"/>
  <path d="M505 200L580 332" stroke="#64748B" stroke-width="2"/>
  <path d="M655 238L580 332" stroke="#64748B" stroke-width="2"/>
  <path d="M425 350L505 460" stroke="#64748B" stroke-width="2"/>
  <path d="M742 355L670 450" stroke="#64748B" stroke-width="2"/>

  <rect x="250" y="140" width="220" height="42" rx="9" fill="#0B1220" stroke="#334155"/>
  <text x="270" y="167" fill="#93C5FD" font-family="Arial, sans-serif" font-size="18" font-weight="700">ALERT STREAM</text>

  <rect x="730" y="478" width="220" height="42" rx="9" fill="#0B1220" stroke="#334155"/>
  <text x="754" y="505" fill="#86EFAC" font-family="Arial, sans-serif" font-size="18" font-weight="700">INCIDENT CASE</text>

  <text x="250" y="590" fill="#E2E8F0" font-family="Arial, sans-serif" font-size="42" font-weight="800">Agentic AI Threat Correlation</text>
</svg>
