<svg width="1200" height="675" viewBox="0 0 1200 675" fill="none" xmlns="http://www.w3.org/2000/svg">
  <defs>
    <linearGradient id="bg2" x1="0" y1="0" x2="1200" y2="675" gradientUnits="userSpaceOnUse">
      <stop stop-color="#0A1024"/>
      <stop offset="1" stop-color="#111827"/>
    </linearGradient>
    <linearGradient id="panel" x1="120" y1="100" x2="1080" y2="580" gradientUnits="userSpaceOnUse">
      <stop stop-color="#172033"/>
      <stop offset="1" stop-color="#0D1528"/>
    </linearGradient>
    <linearGradient id="sharp" x1="630" y1="170" x2="1030" y2="470" gradientUnits="userSpaceOnUse">
      <stop stop-color="#60A5FA"/>
      <stop offset="1" stop-color="#34D399"/>
    </linearGradient>
  </defs>

  <rect width="1200" height="675" fill="url(#bg2)"/>
  <rect x="120" y="100" width="960" height="475" rx="28" fill="url(#panel)" stroke="#334155"/>

  <rect x="170" y="155" width="430" height="350" rx="18" fill="#0A0F1E" stroke="#3F4B63"/>
  <rect x="600" y="155" width="430" height="350" rx="18" fill="#0A0F1E" stroke="#3F4B63"/>

  <g opacity="0.55">
    <circle cx="280" cy="265" r="75" fill="#64748B"/>
    <rect x="245" y="340" width="120" height="90" rx="14" fill="#475569"/>
    <rect x="210" y="235" width="170" height="14" rx="7" fill="#94A3B8"/>
    <rect x="220" y="260" width="150" height="14" rx="7" fill="#94A3B8"/>
  </g>

  <g>
    <circle cx="715" cy="255" r="78" fill="url(#sharp)"/>
    <rect x="675" y="338" width="130" height="95" rx="16" fill="#1E40AF"/>
    <rect x="645" y="225" width="190" height="15" rx="7.5" fill="#A5F3FC"/>
    <rect x="655" y="252" width="170" height="15" rx="7.5" fill="#A5F3FC"/>
  </g>

  <path d="M555 330L645 330" stroke="#60A5FA" stroke-width="6" stroke-linecap="round"/>
  <path d="M610 300L645 330L610 360" stroke="#34D399" stroke-width="6" stroke-linecap="round" stroke-linejoin="round"/>

  <text x="210" y="540" fill="#94A3B8" font-family="Arial, sans-serif" font-size="26" font-weight="700">Blurred Input</text>
  <text x="720" y="540" fill="#A7F3D0" font-family="Arial, sans-serif" font-size="26" font-weight="700">Deblurred + Generated Frames</text>

  <text x="150" y="625" fill="#E5E7EB" font-family="Arial, sans-serif" font-size="40" font-weight="800">Neural Rendering for Deblurring and Frame Generation</text>
</svg>
